<?xml version="1.0" encoding="UTF-8"?>
<!DOCTYPE svg PUBLIC "-//W3C//DTD SVG 1.1//EN" "http://www.w3.org/Graphics/SVG/1.1/DTD/svg11.dtd">
<!-- Creator: CorelDRAW X6 -->
<svg xmlns="http://www.w3.org/2000/svg" xml:space="preserve" width="205.75mm" height="51.7125mm" version="1.1" style="shape-rendering:geometricPrecision; text-rendering:geometricPrecision; image-rendering:optimizeQuality; fill-rule:evenodd; clip-rule:evenodd"
viewBox="0 0 15836 3980"
 xmlns:xlink="http://www.w3.org/1999/xlink">
 <defs>
  <style type="text/css">
   <![CDATA[
    .fil0 {fill:#FEFEFE}
    .fil2 {fill:#D62628}
    .fil1 {fill:#222426;fill-rule:nonzero}
   ]]>
  </style>
 </defs>
 <g id="Слой_x0020_1">
  <metadata id="CorelCorpID_0Corel-Layer"/>
  <circle class="fil0" transform="matrix(0 -2.22092 2.22092 0 9410.54 1990.1)" r="896"/>
  <path class="fil1" d="M3 3502l897 -3366c10,-38 44,-64 83,-64l955 0c28,0 52,12 69,34 16,22 22,48 14,74l-694 2593c-7,26 -2,52 15,74 17,22 40,34 68,34l1845 0c28,0 52,12 68,34 17,22 22,48 15,74l-150 558c-11,38 -44,63 -83,63l-3019 0c-27,0 -51,-12 -68,-33 -17,-22 -22,-48 -15,-75z"/>
  <path class="fil1" d="M4602 72l2798 0c33,0 61,14 81,40 21,26 27,57 19,89l-19 70c-134,150 -250,316 -346,494 -12,23 -35,36 -60,36l-1592 0c-48,0 -88,31 -100,77l-122 461c-8,32 -2,63 18,90 20,26 49,40 82,40l1424 0c33,0 62,14 82,40 20,26 26,57 18,89l-136 513c-12,46 -52,77 -99,77l-1534 0c-47,0 -87,30 -100,76l-134 497c-8,32 -2,63 18,90 20,26 49,40 82,40l1909 0c34,0 62,14 82,41 21,26 27,58 18,90l-140 512c-13,46 -52,76 -100,76l-3099 0c-28,0 -52,-11 -68,-33 -17,-22 -22,-48 -15,-75l883 -3315c18,-69 78,-115 150,-115z"/>
  <path class="fil1" d="M12907 1794l-458 1756c-9,36 -41,60 -78,60l-966 -6c-21,0 -38,-8 -50,-24 -13,-17 -17,-36 -11,-55l1 -6c333,-420 531,-951 531,-1529 0,-99 -5,-196 -17,-292 -4,-34 -2,-64 7,-98l389 -1431c16,-58 67,-97 127,-97l746 0c50,0 93,26 117,70l961 1828c7,13 20,20 34,18 14,-1 26,-11 29,-25l516 -1891 971 0c25,0 48,11 63,31 16,21 21,45 14,70l-889 3339c-16,59 -67,98 -128,98l-729 0c-48,0 -90,-24 -114,-66l-1003 -1758c-7,-13 -20,-19 -34,-17 -14,2 -26,11 -29,25z"/>
  <path class="fil2" d="M9144 18c-673,90 -1239,516 -1525,1104l1032 -201 493 -903zm-1698 1653c-17,104 -26,211 -26,319 0,565 236,1074 613,1436l119 -1011 -706 -744zm1074 2099c268,134 570,210 891,210 328,0 638,-80 912,-221l-897 -424 -906 435zm2320 -395c347,-359 561,-847 561,-1385 0,-96 -7,-190 -21,-283l-659 711 119 957zm351 -2274c-279,-557 -811,-965 -1446,-1073l485 903 961 170z"/>
  <polygon class="fil2" points="9404,2941 9850,2617 10296,2294 10125,1770 9955,1246 9404,1246 8853,1246 8683,1770 8513,2294 8958,2617 "/>
 </g>
</svg>
