<?xml version="1.0" encoding="iso-8859-1"?>
<!-- Generator: Adobe Illustrator 16.0.0, SVG Export Plug-In . SVG Version: 6.00 Build 0)  -->
<!DOCTYPE svg PUBLIC "-//W3C//DTD SVG 1.1//EN" "http://www.w3.org/Graphics/SVG/1.1/DTD/svg11.dtd">
<svg version="1.1" id="Capa_1" xmlns="http://www.w3.org/2000/svg" xmlns:xlink="http://www.w3.org/1999/xlink" x="0px" y="0px"
	 width="407.021px" height="407.021px" viewBox="0 0 407.021 407.021" style="enable-background:new 0 0 407.021 407.021;"
	 xml:space="preserve">
<g>
	<path d="M203.323,0c-22.188,0-44.173,3.651-65.346,10.853c-20.882,7.106-40.301,17.429-57.717,30.683
		c-69.719,53.059-97.588,144.46-69.35,227.44c17.492,51.464,53.977,93.018,102.732,117.007c28.327,13.959,58.5,21.038,89.682,21.039
		c0.001,0,0.007,0,0.008,0c22.243,0,44.351-3.681,65.713-10.942c20.88-7.104,40.304-17.432,57.73-30.693
		c69.711-53.054,97.575-144.45,69.334-227.429C368.041,55.44,290.565,0,203.323,0z M223.014,44.855
		c2.916-2.218,5.921-4.422,8.932-6.55l2.337-1.652l2.804,0.57c13.714,2.778,27.099,7.269,39.781,13.347l9.257,4.436l-7.856,6.609
		c-65.569,55.148-78.947,111.623-81.086,140.377l-0.316,4.222l-3.96,1.488c-7.51,2.824-15.628,4.255-24.127,4.255
		c-9.49,0-19.639-1.783-30.165-5.3l-4.495-1.502l-0.03-4.741C133.958,179.899,139.986,108.044,223.014,44.855z M47.079,137.765
		c11.536-27.453,30.082-51.437,53.632-69.359c14.56-11.08,30.764-19.69,48.164-25.593c5.162-1.765,10.725-3.354,16.531-4.719
		l22.376-5.266l-16.141,16.366c-47.471,48.128-62.472,97.256-66.697,129.994l-1.388,10.74l-8.931-6.124
		c-19.268-13.211-35.716-28.386-46.122-38.79l-3.148-3.148L47.079,137.765z M40.998,251.928l-0.718-2.54
		c-5.585-19.759-7.538-40.106-5.804-60.476l1.117-13.101l9.865,8.692c24.67,21.737,73.522,58.204,123.524,58.204
		c14.167,0,27.715-2.922,40.266-8.687l3.138-1.44l2.979,1.748c14.843,8.709,28.282,18.883,39.945,30.238l5.988,5.832l-7.043,4.5
		c-14.506,9.262-39.18,20.436-74.354,21.068c-1.042,0.02-2.092,0.027-3.14,0.027c-41.043,0-85.958-14.373-133.497-42.717
		L40.998,251.928z M298.867,343.746c-12.746,8.673-26.445,15.526-40.719,20.372c-17.807,6.062-36.249,9.139-54.813,9.139
		c-25.989,0-51.146-5.898-74.774-17.531c-18.458-9.089-34.916-21.271-48.917-36.208L59.87,298.423l26.987,10.381
		c31.207,12.004,61.478,18.091,89.973,18.091c46.053,0,78.588-15.668,97.771-28.812l5.705-3.904l3.66,5.859
		c7.154,11.455,13.014,23.574,17.418,36.021l1.703,4.813L298.867,343.746z M360.992,266.742
		c-6.417,16.033-15.229,30.951-26.192,44.338l-6.777,8.277l-4.389-9.755c-13.185-29.289-39.941-70.68-92.537-101.539l-3.629-2.13
		l0.384-4.189c1.065-11.571,4.759-29.984,16.308-51.995l2.813-5.36l5.591,2.318c26.511,10.985,75.838,40.522,108.35,114.922
		l1.108,2.541L360.992,266.742z M360.824,198.522c-29.794-42.697-64.423-65.068-88.227-76.316l-7.943-3.754l5.792-6.605
		c10.655-12.142,23.38-23.922,37.821-35.014l4.354-3.346l4.095,3.662c21.682,19.379,38.089,44.169,47.444,71.689
		c4.93,14.447,7.86,29.769,8.713,45.537l1.25,23.206L360.824,198.522z"/>
</g>
<g>
</g>
<g>
</g>
<g>
</g>
<g>
</g>
<g>
</g>
<g>
</g>
<g>
</g>
<g>
</g>
<g>
</g>
<g>
</g>
<g>
</g>
<g>
</g>
<g>
</g>
<g>
</g>
<g>
</g>
</svg>
