<svg viewBox="0 0 512 512" xmlns="http://www.w3.org/2000/svg"><path d="m437.019531 74.980469c-48.351562-48.351563-112.640625-74.980469-181.019531-74.980469s-132.667969 26.628906-181.019531 74.980469c-48.351563 48.351562-74.980469 112.640625-74.980469 181.019531s26.628906 132.667969 74.980469 181.019531c48.351562 48.351563 112.640625 74.980469 181.019531 74.980469s132.667969-26.628906 181.019531-74.980469c48.351563-48.351562 74.980469-112.640625 74.980469-181.019531s-26.628906-132.667969-74.980469-181.019531zm-22.175781 20.421875c-42.164062 41.625-99.292969 65.261718-158.84375 65.261718-59.554688 0-116.679688-23.636718-158.84375-65.261718 40.851562-40.410156 96.980469-65.402344 158.84375-65.402344s117.992188 24.992188 158.84375 65.402344zm-337.601562 22.484375c47.644531 46.4375 111.847656 72.777343 178.757812 72.777343s131.113281-26.339843 178.757812-72.777343c29.597657 38.21875 47.242188 86.140625 47.242188 138.113281s-17.644531 99.894531-47.242188 138.113281c-47.644531-46.4375-111.847656-72.78125-178.757812-72.78125s-131.113281 26.34375-178.757812 72.78125c-29.597657-38.21875-47.242188-86.140625-47.242188-138.113281s17.644531-99.894531 47.242188-138.113281zm19.914062 298.710937c42.164062-41.628906 99.292969-65.265625 158.84375-65.265625s116.679688 23.636719 158.84375 65.265625c-40.851562 40.410156-96.980469 65.402344-158.84375 65.402344s-117.992188-24.992188-158.84375-65.402344zm0 0"/></svg>